<mxfile host="app.diagrams.net" modified="2024-03-18T14:02:53.325Z" agent="Mozilla/5.0 (Windows NT 10.0; Win64; x64) AppleWebKit/537.36 (KHTML, like Gecko) Chrome/122.0.0.0 Safari/537.36 Edg/122.0.0.0" etag="cthvXfthnfaURFt5jDvx" version="22.1.18" type="device">
  <diagram name="Page-1" id="evIKOQA8kUP37th_yeaN">
    <mxGraphModel dx="1603" dy="875" grid="1" gridSize="10" guides="1" tooltips="1" connect="1" arrows="1" fold="1" page="1" pageScale="1" pageWidth="850" pageHeight="1100" math="0" shadow="0">
      <root>
        <mxCell id="0" />
        <mxCell id="1" parent="0" />
        <mxCell id="cxEB-We3BAzkDIh4AThc-1" value="Kishan Saathi App" style="rounded=0;whiteSpace=wrap;html=1;verticalAlign=top;" vertex="1" parent="1">
          <mxGeometry x="320" y="40" width="320" height="700" as="geometry" />
        </mxCell>
        <mxCell id="cxEB-We3BAzkDIh4AThc-2" value="Create Account" style="ellipse;whiteSpace=wrap;html=1;" vertex="1" parent="1">
          <mxGeometry x="430" y="70" width="120" height="40" as="geometry" />
        </mxCell>
        <mxCell id="cxEB-We3BAzkDIh4AThc-35" style="edgeStyle=none;shape=connector;rounded=0;orthogonalLoop=1;jettySize=auto;html=1;exitX=1;exitY=0.3333333333333333;exitDx=0;exitDy=0;exitPerimeter=0;entryX=0;entryY=0.5;entryDx=0;entryDy=0;labelBackgroundColor=default;strokeColor=default;align=center;verticalAlign=middle;fontFamily=Helvetica;fontSize=11;fontColor=default;endArrow=none;endFill=0;" edge="1" parent="1" source="cxEB-We3BAzkDIh4AThc-3" target="cxEB-We3BAzkDIh4AThc-2">
          <mxGeometry relative="1" as="geometry" />
        </mxCell>
        <mxCell id="cxEB-We3BAzkDIh4AThc-36" style="edgeStyle=none;shape=connector;rounded=0;orthogonalLoop=1;jettySize=auto;html=1;exitX=1;exitY=0.3333333333333333;exitDx=0;exitDy=0;exitPerimeter=0;entryX=0;entryY=0.5;entryDx=0;entryDy=0;labelBackgroundColor=default;strokeColor=default;align=center;verticalAlign=middle;fontFamily=Helvetica;fontSize=11;fontColor=default;endArrow=none;endFill=0;" edge="1" parent="1" source="cxEB-We3BAzkDIh4AThc-3" target="cxEB-We3BAzkDIh4AThc-10">
          <mxGeometry relative="1" as="geometry" />
        </mxCell>
        <mxCell id="cxEB-We3BAzkDIh4AThc-37" style="edgeStyle=none;shape=connector;rounded=0;orthogonalLoop=1;jettySize=auto;html=1;exitX=1;exitY=0.3333333333333333;exitDx=0;exitDy=0;exitPerimeter=0;entryX=0;entryY=0.5;entryDx=0;entryDy=0;labelBackgroundColor=default;strokeColor=default;align=center;verticalAlign=middle;fontFamily=Helvetica;fontSize=11;fontColor=default;endArrow=none;endFill=0;" edge="1" parent="1" source="cxEB-We3BAzkDIh4AThc-3" target="cxEB-We3BAzkDIh4AThc-14">
          <mxGeometry relative="1" as="geometry" />
        </mxCell>
        <mxCell id="cxEB-We3BAzkDIh4AThc-38" style="edgeStyle=none;shape=connector;rounded=0;orthogonalLoop=1;jettySize=auto;html=1;exitX=1;exitY=0.3333333333333333;exitDx=0;exitDy=0;exitPerimeter=0;entryX=0;entryY=0.5;entryDx=0;entryDy=0;labelBackgroundColor=default;strokeColor=default;align=center;verticalAlign=middle;fontFamily=Helvetica;fontSize=11;fontColor=default;endArrow=none;endFill=0;" edge="1" parent="1" source="cxEB-We3BAzkDIh4AThc-3" target="cxEB-We3BAzkDIh4AThc-18">
          <mxGeometry relative="1" as="geometry" />
        </mxCell>
        <mxCell id="cxEB-We3BAzkDIh4AThc-39" style="edgeStyle=none;shape=connector;rounded=0;orthogonalLoop=1;jettySize=auto;html=1;exitX=1;exitY=0.3333333333333333;exitDx=0;exitDy=0;exitPerimeter=0;entryX=0;entryY=0.5;entryDx=0;entryDy=0;labelBackgroundColor=default;strokeColor=default;align=center;verticalAlign=middle;fontFamily=Helvetica;fontSize=11;fontColor=default;endArrow=none;endFill=0;" edge="1" parent="1" source="cxEB-We3BAzkDIh4AThc-3" target="cxEB-We3BAzkDIh4AThc-27">
          <mxGeometry relative="1" as="geometry" />
        </mxCell>
        <mxCell id="cxEB-We3BAzkDIh4AThc-45" style="edgeStyle=none;shape=connector;rounded=0;orthogonalLoop=1;jettySize=auto;html=1;exitX=1;exitY=0.3333333333333333;exitDx=0;exitDy=0;exitPerimeter=0;entryX=0;entryY=0.5;entryDx=0;entryDy=0;labelBackgroundColor=default;strokeColor=default;align=center;verticalAlign=middle;fontFamily=Helvetica;fontSize=11;fontColor=default;endArrow=none;endFill=0;" edge="1" parent="1" source="cxEB-We3BAzkDIh4AThc-3" target="cxEB-We3BAzkDIh4AThc-24">
          <mxGeometry relative="1" as="geometry" />
        </mxCell>
        <mxCell id="cxEB-We3BAzkDIh4AThc-46" style="edgeStyle=none;shape=connector;rounded=0;orthogonalLoop=1;jettySize=auto;html=1;exitX=1;exitY=0.3333333333333333;exitDx=0;exitDy=0;exitPerimeter=0;entryX=0;entryY=0.5;entryDx=0;entryDy=0;labelBackgroundColor=default;strokeColor=default;align=center;verticalAlign=middle;fontFamily=Helvetica;fontSize=11;fontColor=default;endArrow=none;endFill=0;" edge="1" parent="1" source="cxEB-We3BAzkDIh4AThc-3" target="cxEB-We3BAzkDIh4AThc-22">
          <mxGeometry relative="1" as="geometry" />
        </mxCell>
        <mxCell id="cxEB-We3BAzkDIh4AThc-47" style="edgeStyle=none;shape=connector;rounded=0;orthogonalLoop=1;jettySize=auto;html=1;exitX=1;exitY=0.3333333333333333;exitDx=0;exitDy=0;exitPerimeter=0;entryX=0;entryY=0.5;entryDx=0;entryDy=0;labelBackgroundColor=default;strokeColor=default;align=center;verticalAlign=middle;fontFamily=Helvetica;fontSize=11;fontColor=default;endArrow=none;endFill=0;" edge="1" parent="1" source="cxEB-We3BAzkDIh4AThc-3" target="cxEB-We3BAzkDIh4AThc-26">
          <mxGeometry relative="1" as="geometry" />
        </mxCell>
        <mxCell id="cxEB-We3BAzkDIh4AThc-54" style="edgeStyle=none;shape=connector;rounded=0;orthogonalLoop=1;jettySize=auto;html=1;exitX=1;exitY=0.3333333333333333;exitDx=0;exitDy=0;exitPerimeter=0;entryX=0;entryY=0.5;entryDx=0;entryDy=0;labelBackgroundColor=default;strokeColor=default;align=center;verticalAlign=middle;fontFamily=Helvetica;fontSize=11;fontColor=default;endArrow=none;endFill=0;" edge="1" parent="1" source="cxEB-We3BAzkDIh4AThc-3" target="cxEB-We3BAzkDIh4AThc-53">
          <mxGeometry relative="1" as="geometry" />
        </mxCell>
        <mxCell id="cxEB-We3BAzkDIh4AThc-55" style="edgeStyle=none;shape=connector;rounded=0;orthogonalLoop=1;jettySize=auto;html=1;exitX=1;exitY=0.3333333333333333;exitDx=0;exitDy=0;exitPerimeter=0;entryX=0;entryY=0.5;entryDx=0;entryDy=0;labelBackgroundColor=default;strokeColor=default;align=center;verticalAlign=middle;fontFamily=Helvetica;fontSize=11;fontColor=default;endArrow=none;endFill=0;" edge="1" parent="1" source="cxEB-We3BAzkDIh4AThc-3" target="cxEB-We3BAzkDIh4AThc-50">
          <mxGeometry relative="1" as="geometry" />
        </mxCell>
        <mxCell id="cxEB-We3BAzkDIh4AThc-3" value="Admin" style="shape=umlActor;verticalLabelPosition=bottom;verticalAlign=top;html=1;outlineConnect=0;" vertex="1" parent="1">
          <mxGeometry x="120" y="420" width="30" height="60" as="geometry" />
        </mxCell>
        <mxCell id="cxEB-We3BAzkDIh4AThc-40" style="edgeStyle=none;shape=connector;rounded=0;orthogonalLoop=1;jettySize=auto;html=1;exitX=0;exitY=0.3333333333333333;exitDx=0;exitDy=0;exitPerimeter=0;entryX=1;entryY=0.5;entryDx=0;entryDy=0;labelBackgroundColor=default;strokeColor=default;align=center;verticalAlign=middle;fontFamily=Helvetica;fontSize=11;fontColor=default;endArrow=none;endFill=0;" edge="1" parent="1" source="cxEB-We3BAzkDIh4AThc-5" target="cxEB-We3BAzkDIh4AThc-2">
          <mxGeometry relative="1" as="geometry" />
        </mxCell>
        <mxCell id="cxEB-We3BAzkDIh4AThc-41" style="edgeStyle=none;shape=connector;rounded=0;orthogonalLoop=1;jettySize=auto;html=1;exitX=0;exitY=0.3333333333333333;exitDx=0;exitDy=0;exitPerimeter=0;entryX=1;entryY=0.5;entryDx=0;entryDy=0;labelBackgroundColor=default;strokeColor=default;align=center;verticalAlign=middle;fontFamily=Helvetica;fontSize=11;fontColor=default;endArrow=none;endFill=0;" edge="1" parent="1" source="cxEB-We3BAzkDIh4AThc-5" target="cxEB-We3BAzkDIh4AThc-10">
          <mxGeometry relative="1" as="geometry" />
        </mxCell>
        <mxCell id="cxEB-We3BAzkDIh4AThc-42" style="edgeStyle=none;shape=connector;rounded=0;orthogonalLoop=1;jettySize=auto;html=1;exitX=0;exitY=0.3333333333333333;exitDx=0;exitDy=0;exitPerimeter=0;entryX=1;entryY=0.5;entryDx=0;entryDy=0;labelBackgroundColor=default;strokeColor=default;align=center;verticalAlign=middle;fontFamily=Helvetica;fontSize=11;fontColor=default;endArrow=none;endFill=0;" edge="1" parent="1" source="cxEB-We3BAzkDIh4AThc-5" target="cxEB-We3BAzkDIh4AThc-14">
          <mxGeometry relative="1" as="geometry" />
        </mxCell>
        <mxCell id="cxEB-We3BAzkDIh4AThc-43" style="edgeStyle=none;shape=connector;rounded=0;orthogonalLoop=1;jettySize=auto;html=1;exitX=0;exitY=0.3333333333333333;exitDx=0;exitDy=0;exitPerimeter=0;entryX=1;entryY=0.5;entryDx=0;entryDy=0;labelBackgroundColor=default;strokeColor=default;align=center;verticalAlign=middle;fontFamily=Helvetica;fontSize=11;fontColor=default;endArrow=none;endFill=0;" edge="1" parent="1" source="cxEB-We3BAzkDIh4AThc-5" target="cxEB-We3BAzkDIh4AThc-18">
          <mxGeometry relative="1" as="geometry" />
        </mxCell>
        <mxCell id="cxEB-We3BAzkDIh4AThc-49" style="edgeStyle=none;shape=connector;rounded=0;orthogonalLoop=1;jettySize=auto;html=1;exitX=0;exitY=0.3333333333333333;exitDx=0;exitDy=0;exitPerimeter=0;entryX=1;entryY=0.5;entryDx=0;entryDy=0;labelBackgroundColor=default;strokeColor=default;align=center;verticalAlign=middle;fontFamily=Helvetica;fontSize=11;fontColor=default;endArrow=none;endFill=0;" edge="1" parent="1" source="cxEB-We3BAzkDIh4AThc-5" target="cxEB-We3BAzkDIh4AThc-48">
          <mxGeometry relative="1" as="geometry" />
        </mxCell>
        <mxCell id="cxEB-We3BAzkDIh4AThc-5" value="Customer" style="shape=umlActor;verticalLabelPosition=bottom;verticalAlign=top;html=1;outlineConnect=0;" vertex="1" parent="1">
          <mxGeometry x="790" y="280" width="30" height="60" as="geometry" />
        </mxCell>
        <mxCell id="cxEB-We3BAzkDIh4AThc-29" style="edgeStyle=none;shape=connector;rounded=0;orthogonalLoop=1;jettySize=auto;html=1;exitX=1;exitY=0.3333333333333333;exitDx=0;exitDy=0;exitPerimeter=0;entryX=0;entryY=0.5;entryDx=0;entryDy=0;labelBackgroundColor=default;strokeColor=default;align=center;verticalAlign=middle;fontFamily=Helvetica;fontSize=11;fontColor=default;endArrow=none;endFill=0;" edge="1" parent="1" source="cxEB-We3BAzkDIh4AThc-6" target="cxEB-We3BAzkDIh4AThc-2">
          <mxGeometry relative="1" as="geometry" />
        </mxCell>
        <mxCell id="cxEB-We3BAzkDIh4AThc-30" style="edgeStyle=none;shape=connector;rounded=0;orthogonalLoop=1;jettySize=auto;html=1;exitX=1;exitY=0.3333333333333333;exitDx=0;exitDy=0;exitPerimeter=0;entryX=0;entryY=0.5;entryDx=0;entryDy=0;labelBackgroundColor=default;strokeColor=default;align=center;verticalAlign=middle;fontFamily=Helvetica;fontSize=11;fontColor=default;endArrow=none;endFill=0;" edge="1" parent="1" source="cxEB-We3BAzkDIh4AThc-6" target="cxEB-We3BAzkDIh4AThc-10">
          <mxGeometry relative="1" as="geometry" />
        </mxCell>
        <mxCell id="cxEB-We3BAzkDIh4AThc-31" style="edgeStyle=none;shape=connector;rounded=0;orthogonalLoop=1;jettySize=auto;html=1;exitX=1;exitY=0.3333333333333333;exitDx=0;exitDy=0;exitPerimeter=0;entryX=0;entryY=0.5;entryDx=0;entryDy=0;labelBackgroundColor=default;strokeColor=default;align=center;verticalAlign=middle;fontFamily=Helvetica;fontSize=11;fontColor=default;endArrow=none;endFill=0;" edge="1" parent="1" source="cxEB-We3BAzkDIh4AThc-6" target="cxEB-We3BAzkDIh4AThc-14">
          <mxGeometry relative="1" as="geometry" />
        </mxCell>
        <mxCell id="cxEB-We3BAzkDIh4AThc-32" style="edgeStyle=none;shape=connector;rounded=0;orthogonalLoop=1;jettySize=auto;html=1;exitX=1;exitY=0.3333333333333333;exitDx=0;exitDy=0;exitPerimeter=0;entryX=0;entryY=0.5;entryDx=0;entryDy=0;labelBackgroundColor=default;strokeColor=default;align=center;verticalAlign=middle;fontFamily=Helvetica;fontSize=11;fontColor=default;endArrow=none;endFill=0;" edge="1" parent="1" source="cxEB-We3BAzkDIh4AThc-6" target="cxEB-We3BAzkDIh4AThc-18">
          <mxGeometry relative="1" as="geometry" />
        </mxCell>
        <mxCell id="cxEB-We3BAzkDIh4AThc-33" style="edgeStyle=none;shape=connector;rounded=0;orthogonalLoop=1;jettySize=auto;html=1;exitX=1;exitY=0.3333333333333333;exitDx=0;exitDy=0;exitPerimeter=0;entryX=0;entryY=0.5;entryDx=0;entryDy=0;labelBackgroundColor=default;strokeColor=default;align=center;verticalAlign=middle;fontFamily=Helvetica;fontSize=11;fontColor=default;endArrow=none;endFill=0;" edge="1" parent="1" source="cxEB-We3BAzkDIh4AThc-6" target="cxEB-We3BAzkDIh4AThc-27">
          <mxGeometry relative="1" as="geometry" />
        </mxCell>
        <mxCell id="cxEB-We3BAzkDIh4AThc-51" style="edgeStyle=none;shape=connector;rounded=0;orthogonalLoop=1;jettySize=auto;html=1;exitX=1;exitY=0.3333333333333333;exitDx=0;exitDy=0;exitPerimeter=0;entryX=0;entryY=0.5;entryDx=0;entryDy=0;labelBackgroundColor=default;strokeColor=default;align=center;verticalAlign=middle;fontFamily=Helvetica;fontSize=11;fontColor=default;endArrow=none;endFill=0;" edge="1" parent="1" source="cxEB-We3BAzkDIh4AThc-6" target="cxEB-We3BAzkDIh4AThc-48">
          <mxGeometry relative="1" as="geometry" />
        </mxCell>
        <mxCell id="cxEB-We3BAzkDIh4AThc-52" style="edgeStyle=none;shape=connector;rounded=0;orthogonalLoop=1;jettySize=auto;html=1;exitX=1;exitY=0.3333333333333333;exitDx=0;exitDy=0;exitPerimeter=0;entryX=0;entryY=0.5;entryDx=0;entryDy=0;labelBackgroundColor=default;strokeColor=default;align=center;verticalAlign=middle;fontFamily=Helvetica;fontSize=11;fontColor=default;endArrow=none;endFill=0;" edge="1" parent="1" source="cxEB-We3BAzkDIh4AThc-6" target="cxEB-We3BAzkDIh4AThc-50">
          <mxGeometry relative="1" as="geometry" />
        </mxCell>
        <mxCell id="cxEB-We3BAzkDIh4AThc-6" value="Farmer" style="shape=umlActor;verticalLabelPosition=bottom;verticalAlign=top;html=1;outlineConnect=0;" vertex="1" parent="1">
          <mxGeometry x="120" y="150" width="30" height="60" as="geometry" />
        </mxCell>
        <mxCell id="cxEB-We3BAzkDIh4AThc-10" value="Login" style="ellipse;whiteSpace=wrap;html=1;" vertex="1" parent="1">
          <mxGeometry x="430" y="120" width="120" height="40" as="geometry" />
        </mxCell>
        <mxCell id="cxEB-We3BAzkDIh4AThc-14" value="Get Crop Recommendation" style="ellipse;whiteSpace=wrap;html=1;" vertex="1" parent="1">
          <mxGeometry x="417.5" y="170" width="145" height="50" as="geometry" />
        </mxCell>
        <mxCell id="cxEB-We3BAzkDIh4AThc-18" value="Get Cure Recommendation" style="ellipse;whiteSpace=wrap;html=1;" vertex="1" parent="1">
          <mxGeometry x="417.5" y="230" width="145" height="50" as="geometry" />
        </mxCell>
        <mxCell id="cxEB-We3BAzkDIh4AThc-22" value="Create Admin" style="ellipse;whiteSpace=wrap;html=1;" vertex="1" parent="1">
          <mxGeometry x="421.25" y="610" width="145" height="50" as="geometry" />
        </mxCell>
        <mxCell id="cxEB-We3BAzkDIh4AThc-24" value="Modify/Delete Users" style="ellipse;whiteSpace=wrap;html=1;" vertex="1" parent="1">
          <mxGeometry x="421.25" y="670" width="145" height="50" as="geometry" />
        </mxCell>
        <mxCell id="cxEB-We3BAzkDIh4AThc-26" value="Create, Modify and &lt;br&gt;Delete Seed" style="ellipse;whiteSpace=wrap;html=1;" vertex="1" parent="1">
          <mxGeometry x="417.5" y="550" width="145" height="50" as="geometry" />
        </mxCell>
        <mxCell id="cxEB-We3BAzkDIh4AThc-27" value="Create, Modify and &lt;br&gt;Delete Product" style="ellipse;whiteSpace=wrap;html=1;" vertex="1" parent="1">
          <mxGeometry x="421.25" y="305" width="145" height="50" as="geometry" />
        </mxCell>
        <mxCell id="cxEB-We3BAzkDIh4AThc-48" value="Make Order" style="ellipse;whiteSpace=wrap;html=1;" vertex="1" parent="1">
          <mxGeometry x="421.25" y="365" width="145" height="50" as="geometry" />
        </mxCell>
        <mxCell id="cxEB-We3BAzkDIh4AThc-50" value="Manage Order" style="ellipse;whiteSpace=wrap;html=1;" vertex="1" parent="1">
          <mxGeometry x="421.25" y="425" width="145" height="50" as="geometry" />
        </mxCell>
        <mxCell id="cxEB-We3BAzkDIh4AThc-53" value="Logout" style="ellipse;whiteSpace=wrap;html=1;" vertex="1" parent="1">
          <mxGeometry x="417.5" y="490" width="145" height="50" as="geometry" />
        </mxCell>
      </root>
    </mxGraphModel>
  </diagram>
</mxfile>
